<?xml version="1.0" encoding="utf-8"?>
<!-- Generator: Adobe Illustrator 24.0.2, SVG Export Plug-In . SVG Version: 6.00 Build 0)  -->
<svg version="1.1" id="_x36_088ba52-b752-42bb-ac91-0a74df332082"
	 xmlns="http://www.w3.org/2000/svg" xmlns:xlink="http://www.w3.org/1999/xlink" x="0px" y="0px" viewBox="0 0 900.7 787"
	 style="enable-background:new 0 0 900.7 787;" xml:space="preserve">
<style type="text/css">
	.st0{opacity:0.2;fill:#6C63FF;enable-background:new    ;}
	.st1{fill:#7B6CB7;}
	.st2{fill:none;stroke:#535461;stroke-width:2;stroke-miterlimit:10;}
	.st3{opacity:0.2;fill:#F5F5F5;enable-background:new    ;}
	.st4{fill:url(#SVGID_1_);}
	.st5{fill:#535461;}
	.st6{fill:#464752;}
	.st7{fill:#F7C4A7;}
	.st8{opacity:0.1;enable-background:new    ;}
	.st9{fill:#675893;}
	.st10{opacity:0.1;}
	.st11{fill:#383638;}
	.st12{opacity:0.1;fill:none;stroke:#000000;stroke-miterlimit:10;enable-background:new    ;}
	.st13{fill:#3A383B;}
	.st14{fill:#6A5C99;}
	.st15{fill:#FFD037;}
	.st16{fill:#6E62A0;}
	.st17{fill:#424043;}
</style>
<title>coding</title>
<rect x="763.4" y="283" class="st0" width="52" height="27"/>
<rect x="767.4" y="316" class="st0" width="52" height="27"/>
<rect x="724.4" y="87" class="st0" width="52" height="27"/>
<rect x="761.4" y="118" class="st0" width="52" height="27"/>
<rect x="661.4" y="89" class="st0" width="52" height="27"/>
<rect x="828.4" y="149" class="st0" width="52" height="27"/>
<rect x="765.4" y="151" class="st0" width="52" height="27"/>
<rect x="698.4" y="120" class="st0" width="52" height="27"/>
<rect x="825.4" y="357" class="st0" width="52" height="27"/>
<rect x="762.4" y="359" class="st0" width="52" height="27"/>
<path class="st1" d="M130.5,276c0,0,73.3,73.3,31.9,182s70.9,289.6,70.9,289.6s-1.2-0.2-3.4-0.6C79.4,720.5,4.6,548.3,88.4,420.5
	C119.4,372.9,145,317.1,130.5,276z"/>
<path class="st2" d="M130.5,276c0,0,41.4,89.8,0,163.1s-7.1,279,102.8,308.5"/>
<path class="st1" d="M0,572.4c0,0,83.6-13.3,91.2,61.6S252,719.3,252,719.3s-1,0.7-2.9,1.9C122.7,804.3,1.8,774.2,20,663.9
	C26.8,623,26.2,581.8,0,572.4z"/>
<path class="st3" d="M0.1,572.4c0,0,83.6-13.3,91.2,61.6s160.8,85.3,160.8,85.3s-1,0.7-2.9,1.9c-126.4,83.1-247.3,53-229.1-57.3
	C26.9,623,26.3,581.8,0.1,572.4z"/>
<path class="st2" d="M0,572.4c0,0,64.9,14.2,59.6,73.3s96.4,129.8,192.5,73.7"/>
<rect x="0.4" y="284" class="st0" width="52" height="27"/>
<rect x="37.4" y="315" class="st0" width="52" height="27"/>
<rect x="318.4" class="st0" width="52" height="27"/>
<rect x="728.4" y="498" class="st0" width="52" height="27"/>
<rect x="41.4" y="348" class="st0" width="52" height="27"/>
<rect x="355.4" y="31" class="st0" width="52" height="27"/>
<rect x="165.4" y="214" class="st0" width="52" height="27"/>
<rect x="202.4" y="245" class="st0" width="52" height="27"/>
<rect x="301.4" y="228" class="st0" width="52" height="27"/>
<rect x="206.4" y="278" class="st0" width="52" height="27"/>
<rect x="798.4" y="498" class="st0" width="52" height="27"/>
<linearGradient id="SVGID_1_" gradientUnits="userSpaceOnUse" x1="613.1762" y1="138.1" x2="613.1762" y2="680.5" gradientTransform="matrix(1 0 0 -1 -149.42 727.5)">
	<stop  offset="0" style="stop-color:#808080;stop-opacity:0.25"/>
	<stop  offset="0.54" style="stop-color:#808080;stop-opacity:0.12"/>
	<stop  offset="1" style="stop-color:#808080;stop-opacity:0.1"/>
</linearGradient>
<path class="st4" d="M720.4,391.1c-3.4-18.7-5.4-37.7-6.2-56.7l0,0c-1.4-32.1-22.8-59.9-53.5-69.4c-5.5-1.7-11.5-3.2-18.1-4.7
	c-58.2-12.4-75.9-1.6-77.9-0.1c-1.7-3.1-7.2-6.3-8.4-9.6c-0.1-0.3-0.2-0.7-0.3-1c11.5-12.3,18.5-28.1,19.9-44.9
	c9.7-9.8,15.4-21.7,15.4-34.5c0-11-4.2-21.3-11.5-30.2v-17.4c0-41.7-29.8-75.6-71.6-75.6l0,0h-6.1c-41.7,0-72.6,33.8-72.6,75.6l0,0
	v18.7c-6.7,8.6-10.5,18.4-10.5,28.9c0,12.5,5.4,24.2,14.8,33.9c1.3,17.4,5.6,33.8,17.7,46.3c0.4,2.8,0.8,5.9,1.2,9.1l-104.1,22
	c0,0-40.1,1.6-66,55c-21.9,45.2-60.6,161.2-73.5,195.8l0,0c-2.3,6.3-3.6,8.9-3.6,8.9s0.4-0.4,1.2-1.2l-1.2,3.4c0,0,0.6-0.6,1.8-1.7
	c-1.8,14.5-1.1,35.9,17.9,38.9c15.9,2.6,51,8.1,81.9,8.5l0,0h2.1c20.5,0.3,36.1,0.3,36.1,0.3v-0.3l324.6-11v-3.4
	c0-3.1-0.6-6.2-1.8-9l0.5-0.6c1.8,2.3,3,7.3,3.5,10.2c0,0.3-0.1,0.6-0.2,0.8l0.2-0.5c0.1,0.9,0-0.4-0.2,0.5
	c0.8-2.2,50.7-99.6,50.1-164.6C722.1,404.8,721.6,397.9,720.4,391.1z M454.6,274.4c-0.6-3.1-0.9-6.3-1.1-9.5v-0.1
	C453.9,267.9,454.3,271.1,454.6,274.4z M325.4,510.4v26.2l-16.4,3.5L325.4,510.4z"/>
<path class="st5" d="M503.5,57.6L503.5,57.6c41.7,0,71.6,33.8,71.6,75.6v32.2l0,0H430.9l0,0v-32.2C430.9,91.4,461.8,57.6,503.5,57.6
	z"/>
<path class="st6" d="M504,116.8c47.6,0,82.1,26.5,82.1,59.2s-34.6,59.2-82.1,59.2s-83.1-26.5-83.1-59.2S456.5,116.8,504,116.8z"/>
<path class="st7" d="M451.8,233.3c0,0,15,94.1-3,119.4s55,35.4,55,35.4l75.6-27.5L590,293c0,0-46-25.9-36.5-78.2L451.8,233.3z"/>
<path class="st7" d="M671.8,550.4c0,0,4.8,20.6-21.1,24.3c-15.3,2.2-30.8,2.1-46.1-0.5l-5.7-51.8h60.2L671.8,550.4z"/>
<path class="st7" d="M224.3,518.4c-6.7,3.8-11.1,10.6-11.9,18.3c-1.4,14.1-0.5,35.2,16.5,38c25.9,4.2,121,4.2,121,4.2v-55l-43.1,9.2
	l-40.4-38.8L224.3,518.4z"/>
<path class="st8" d="M454.4,263.7l-101.2,21.4c0,0-38.6,1.6-63.4,52.9s-77.2,197.7-77.2,197.7s40.6-49.9,94.5-0.3l39.8-61.6
	L339,576.9h278.5v-48.6c0,0,55,20.6,50.8,38c0.8-2.2,53-117.7,42.2-175.8c-3.2-18-5.2-36.2-5.9-54.5l0,0
	c-1.3-30.9-21.9-57.6-51.4-66.7c-5.2-1.6-11-3.1-17.4-4.5c-59.7-12.7-75,0-75,0s-11.6,37.6-11.4,54.7c0.3,21.9-31.2,36.5-31.2,36.5
	c0.2-3-46.4-12.1-48.6-20.1C467,326.9,450.7,274.2,454.4,263.7z"/>
<path class="st9" d="M455.3,261.7L353.2,283c0,0-38.6,1.6-63.4,52.9s-76.9,197.7-76.9,197.7s40.2-50.1,94.1-0.4l39.9-61.5l-7.9,103
	h278.5v-48.6c0,0,55,22.7,50.8,40.1c0,0,52.9-119.7,42.2-177.9c-3.2-18-5.2-36.2-5.9-54.5l0,0c-1.3-30.9-21.9-57.6-51.4-66.7
	c-5.2-1.6-11-3.1-17.4-4.5c-59.7-12.7-75,0-75,0s-4.1,35.2-9.3,53.9c-4.4,15.8-31.5,33.2-39.8,38.2c-1.5,0.9-3.3,0.9-4.8,0
	c-7.5-4.3-30.4-18.2-36.7-31.3C463,308.4,455.7,273.6,455.3,261.7z"/>
<path class="st8" d="M557.8,257.1c-11.1-31.5-9-5.5-2.8-37.5L453.4,238c0,0-1.5,7.9,0.2,19.8c28.8,42.5,74.4,45.8,101.6,1.9
	C556.1,258.8,556.9,258,557.8,257.1L557.8,257.1z"/>
<path class="st7" d="M571.6,203.2c-0.5,39.8-32.8,83.2-66.4,81.1c-38.8-0.2-69.3-40.6-70.4-79.3c0-0.6,0-1.2,0-1.7
	c0-27.5,12.6-52.5,37.3-64.6c2.2-1.1,4.4-2,6.6-2.8c11.8-4.3,24.6-5.5,37-3.4l0,0c32.8,5.6,53.4,32.9,55.6,66.1
	C571.6,200,571.6,201.6,571.6,203.2z"/>
<g class="st10">
	<path d="M478.7,137.4L478.7,137.4c-2.2,0.8-4.4,1.7-6.5,2.8c-24.7,12.1-37.3,37.1-37.3,64.6c0,0.6,0,1.2,0,1.7
		c2.2-0.1,4.4-0.6,6.5-1.5c17.5-8.2,25-33.2,29.2-50.6C472,148.1,473.4,141.1,478.7,137.4z"/>
	<path d="M533.7,139.4c-5.7-2.6-11.7-4.5-17.9-5.5c5.1,1.2,9.6,4,12.8,8.1c1.6,2.2,2.9,4.5,3.9,7c-19.4-8.5-41.5-8-60.5,1.2
		c4.5,9.9,18.5,15.3,27.8,18.9c10.2,3.9,20.6,7.6,31,10.8l-9.2-7.5l20.9,3.3c0.2-4.2-0.3-8.3-1.5-12.3c4,3.2,9.3,4.3,13.6,7
		c8.1,5.1,7.5,15,12,23.6c1.2,2.3,2.5,4.6,4.7,6C569.7,173.7,557.7,150.5,533.7,139.4z"/>
</g>
<path class="st11" d="M478.7,135.8L478.7,135.8c-2.2,0.8-4.4,1.7-6.5,2.8c-24.7,12.1-37.3,37.1-37.3,64.6c0,0.6,0,1.2,0,1.7
	c2.2-0.1,4.4-0.6,6.5-1.5c17.5-8.2,25-33.2,29.2-50.6C472,146.5,473.4,139.4,478.7,135.8z"/>
<path class="st11" d="M533.7,137.8c-5.7-2.6-11.7-4.5-17.9-5.5c5.1,1.2,9.6,4,12.8,8.1c1.6,2.2,2.9,4.5,3.9,7
	c-19.4-8.5-41.5-8-60.5,1.2c4.5,9.9,18.5,15.3,27.8,18.9c10.2,3.9,20.6,7.6,31,10.8l-9.2-7.5l20.9,3.3c0.2-4.2-0.3-8.3-1.5-12.3
	c4,3.2,9.3,4.3,13.6,7c8.1,5.1,7.5,15,12,23.6c1.2,2.3,2.5,4.6,4.7,6C569.7,172.1,557.7,148.8,533.7,137.8z"/>
<path class="st8" d="M426.7,191.3c0,0,67-92,152.6,0l-7.4-20.6c0,0-36.2-58.7-64.7-46s-53.5,21.7-53.5,21.7L426.7,191.3z"/>
<path class="st6" d="M426.7,189.7c0,0,67-92,152.6,0l-7.4-20.6c0,0-36.2-58.7-64.7-46s-53.5,21.7-53.5,21.7L426.7,189.7z"/>
<path class="st8" d="M362.9,387.9c0,0-15.9,42.3,6.3,80.3c22.2,38-19.5,53.9-19.5,53.9"/>
<path class="st8" d="M619.8,349.8c0,0,27.5,34.9,9.5,66.1s-16.9,106.2-16.9,106.2"/>
<path class="st12" d="M430.9,148.2c0,0,65.7-72.7,144.1-1.3"/>
<path class="st6" d="M659.2,576.3H323.5l0,0c0-13.5,11-24.5,24.5-24.5h286.7C648.2,551.8,659.2,562.7,659.2,576.3L659.2,576.3z"/>
<path class="st13" d="M338.4,378.9h305.8c4.3,0,7.8,3.5,7.8,7.8v172.5l0,0H330.7l0,0V386.6C330.7,382.4,334.2,378.9,338.4,378.9z"/>
<rect x="586.1" y="143.6" class="st14" width="7.3" height="41.4"/>
<path class="st15" d="M576.4,170.4L576.4,170.4c13.9,0,25.2,11.3,25.2,25.2v1.6c0,13.9-11.3,25.2-25.2,25.2l0,0l0,0V170.4
	L576.4,170.4z"/>
<path class="st14" d="M574.5,167.9L574.5,167.9c3.1,0,5.7,2.5,5.7,5.7v45.5c0,3.1-2.5,5.7-5.7,5.7l0,0c-3.1,0-5.7-2.5-5.7-5.7v-45.5
	C568.8,170.5,571.4,167.9,574.5,167.9z"/>
<rect x="411.8" y="144.4" class="st14" width="7.3" height="41.4"/>
<path class="st15" d="M428.8,223.1L428.8,223.1c-13.9,0-25.2-11.3-25.2-25.2v-1.6c0-13.9,11.3-25.2,25.2-25.2l0,0l0,0V223.1
	L428.8,223.1z"/>
<path class="st14" d="M430.9,225.6L430.9,225.6c-3.1,0-5.7-2.5-5.7-5.7v-45.5c0-3.1,2.5-5.7,5.7-5.7l0,0c3.1,0,5.7,2.5,5.7,5.7v45.5
	C436.6,223.1,434.1,225.6,430.9,225.6z"/>
<path class="st16" d="M585.3,99.3c-9.9-20.6-27.4-45.4-73.9-47.4v-0.1h-0.6l0,0l-16.5,0.8v0.1c-46.1,2.1-64.6,26.9-74.4,47.4
	c-6.6,13.9-10.1,29-10.2,44.4l5.7-0.1l5.7-0.1c0.2-13.7,3.4-27.1,9.2-39.5c12.5-25.7,32.6-39.4,65.5-40.7l0,0l14.5-0.8l0,0
	c32.9,1.3,52,14.9,64.5,40.7c5.8,12.4,9,25.9,9.2,39.5l5.7,0.1l5.7,0.1C595.3,128.4,591.8,113.2,585.3,99.3z"/>
<path class="st17" d="M74.1,579h774.7v135.3c0,40.2-32.5,72.7-72.7,72.7H146.8c-40.2,0-72.7-32.5-72.7-72.7
	C74.1,714.3,74.1,579,74.1,579z"/>
<rect x="74.1" y="593" class="st8" width="774.7" height="27"/>
<rect x="22.1" y="576" class="st17" width="878.6" height="27"/>
<g>
	<path class="st5" d="M494.6,461.3c0,0,9-4,13.1,2c0,0-3.5,1.7-3.8,6.3c0,0-0.7,4.9,4.7,7.7c0,0-1.1,4.1-4.1,7.5
		c0,0-1.7,2.1-3.4,1.9c-1.6-0.1-3.4-0.6-5.2-1.3c0,0-1.9-0.6-5.5,1.1c0,0-2.4,0.9-4.2-0.7s-4.8-5.1-6.1-10.4
		c-1.3-5.3-0.8-10.3,3-13.8c3.8-3.4,8.8-1.1,8.8-1.1S493.1,461.5,494.6,461.3z"/>
	<path class="st5" d="M494.1,459.3c0,0-0.9-6.9,7.1-8.2C501.2,451.2,501.3,459.4,494.1,459.3z"/>
</g>
</svg>
