<?xml version="1.0" encoding="utf-8"?>
<!-- Generator: Adobe Illustrator 24.0.2, SVG Export Plug-In . SVG Version: 6.00 Build 0)  -->
<svg version="1.1" id="Layer_1" xmlns="http://www.w3.org/2000/svg" xmlns:xlink="http://www.w3.org/1999/xlink" x="0px" y="0px"
	 viewBox="0 0 419.2 408.5" style="enable-background:new 0 0 419.2 408.5;" xml:space="preserve">
<style type="text/css">
	.st0{fill:#FFFFFF;}
</style>
<title>Asset 2</title>
<g id="Layer_2_1_">
	<g id="Layer_1-2">
		<path class="st0" d="M209.6,0C93.8,0,0,93.8,0,209.6c0,92.3,59.7,170.7,142.6,198.7c0,0,11.3,2.1,13.6-6.5v-42.5
			c0,0-55.8,15.1-71.7-27.7c0,0-6-18.4-29.2-32.7c0,0-3.2-6.3,2.6-7.5s13.6-0.2,22.2,4.7s22.6,25.4,24.2,27.9s24,21.6,52,5.8
			c0,0,3.5-20.2,13.3-26.9c0,0-93.3-3.8-94.3-93.2c0,0-5.2-40.4,21.1-66.4c0,0-10.1-30.2,1.8-55.8c0,0,30.9-0.9,57.3,21.4
			c0,0,58.4-14.1,105.8,0.2c0,0,30-21.8,57.8-21.6c0,0,13.7,28.8,2.8,55.1c0,0,26.2,26.2,21.2,67.9c0,0,3,85-94.5,91.8
			c0,0,14.2,12.7,12.7,51.7l0.1,45.1c0,0-0.8,9.9,14.5,9.5c83.3-27.7,143.3-106.3,143.3-198.9C419.2,93.8,325.3,0,209.6,0z"/>
		<path class="st0" d="M78,300.9c-0.4,0.8-1.9,0.8-3.2,0s-2.1-2-1.6-2.8s1.9-0.8,3.2,0S78.5,300.1,78,300.9z"/>
		<path class="st0" d="M87.3,309.6c-0.8,1-2.7,0.9-4.3-0.4s-2.2-3-1.5-4s2.7-0.9,4.3,0.4S88.1,308.6,87.3,309.6z"/>
		<path class="st0" d="M95.8,321.7c-1.1,1.1-3.3,0.6-5-1.1s-2.2-3.9-1.1-5s3.3-0.6,5,1.1S96.9,320.6,95.8,321.7z"/>
		<path class="st0" d="M106.5,334.3c-1.2,1.2-3.7,0.6-5.6-1.2s-2.4-4.4-1.2-5.6s3.7-0.7,5.6,1.2S107.7,333.1,106.5,334.3z"/>
		<path class="st0" d="M122.8,340.4c-0.3,1.8-2.8,2.8-5.5,2.3s-4.7-2.3-4.3-4.1s2.8-2.8,5.5-2.2S123.2,338.7,122.8,340.4z"/>
		<path class="st0" d="M139.4,341.7c0,1.6-2,2.8-4.4,2.8s-4.4-1.3-4.4-2.8s2-2.8,4.4-2.8S139.4,340.1,139.4,341.7z"/>
		<path class="st0" d="M151.9,342.7c-2.3,0.8-4.6,0.3-5.1-1.1s0.9-3.3,3.2-4.2s4.6-0.3,5.1,1.1S154.1,341.8,151.9,342.7z"/>
		<path class="st0" d="M78,300.9c-0.4,0.8-1.9,0.8-3.2,0s-2.1-2-1.6-2.8s1.9-0.8,3.2,0S78.5,300.1,78,300.9z"/>
		<path class="st0" d="M87.3,309.6c-0.8,1-2.7,0.9-4.3-0.4s-2.2-3-1.5-4s2.7-0.9,4.3,0.4S88.1,308.6,87.3,309.6z"/>
		<path class="st0" d="M95.8,321.7c-1.1,1.1-3.3,0.6-5-1.1s-2.2-3.9-1.1-5s3.3-0.6,5,1.1S96.9,320.6,95.8,321.7z"/>
		<path class="st0" d="M106.5,334.3c-1.2,1.2-3.7,0.6-5.6-1.2s-2.4-4.4-1.2-5.6s3.7-0.7,5.6,1.2S107.7,333.1,106.5,334.3z"/>
		<path class="st0" d="M122.8,340.4c-0.3,1.8-2.8,2.8-5.5,2.3s-4.7-2.3-4.3-4.1s2.8-2.8,5.5-2.2S123.2,338.7,122.8,340.4z"/>
		<path class="st0" d="M139.4,341.7c0,1.6-2,2.8-4.4,2.8s-4.4-1.3-4.4-2.8s2-2.8,4.4-2.8S139.4,340.1,139.4,341.7z"/>
		<path class="st0" d="M151.9,342.7c-2.3,0.8-4.6,0.3-5.1-1.1s0.9-3.3,3.2-4.2s4.6-0.3,5.1,1.1S154.1,341.8,151.9,342.7z"/>
		<path class="st0" d="M78,300.9c-0.4,0.8-1.9,0.8-3.2,0s-2.1-2-1.6-2.8s1.9-0.8,3.2,0S78.5,300.1,78,300.9z"/>
		<path class="st0" d="M87.3,309.6c-0.8,1-2.7,0.9-4.3-0.4s-2.2-3-1.5-4s2.7-0.9,4.3,0.4S88.1,308.6,87.3,309.6z"/>
		<path class="st0" d="M95.8,321.7c-1.1,1.1-3.3,0.6-5-1.1s-2.2-3.9-1.1-5s3.3-0.6,5,1.1S96.9,320.6,95.8,321.7z"/>
		<path class="st0" d="M106.5,334.3c-1.2,1.2-3.7,0.6-5.6-1.2s-2.4-4.4-1.2-5.6s3.7-0.7,5.6,1.2S107.7,333.1,106.5,334.3z"/>
		<path class="st0" d="M122.8,340.4c-0.3,1.8-2.8,2.8-5.5,2.3s-4.7-2.3-4.3-4.1s2.8-2.8,5.5-2.2S123.2,338.7,122.8,340.4z"/>
		<path class="st0" d="M139.4,341.7c0,1.6-2,2.8-4.4,2.8s-4.4-1.3-4.4-2.8s2-2.8,4.4-2.8S139.4,340.1,139.4,341.7z"/>
		<path class="st0" d="M151.9,342.7c-2.3,0.8-4.6,0.3-5.1-1.1s0.9-3.3,3.2-4.2s4.6-0.3,5.1,1.1S154.1,341.8,151.9,342.7z"/>
	</g>
</g>
</svg>
