<?xml version="1.0" encoding="utf-8"?>
<!-- Generator: Adobe Illustrator 24.0.2, SVG Export Plug-In . SVG Version: 6.00 Build 0)  -->
<svg version="1.1" id="Layer_1" xmlns="http://www.w3.org/2000/svg" xmlns:xlink="http://www.w3.org/1999/xlink" x="0px" y="0px"
	 viewBox="0 0 346.1 346.1" style="enable-background:new 0 0 346.1 346.1;" xml:space="preserve">
<style type="text/css">
	.st0{fill:url(#SVGID_1_);}
	.st1{fill:#FFFFFF;}
</style>
<g>
	
		<linearGradient id="SVGID_1_" gradientUnits="userSpaceOnUse" x1="22.7188" y1="159.4187" x2="323.4187" y2="-141.2813" gradientTransform="matrix(1 0 0 1 0 164)">
		<stop  offset="4.560596e-04" style="stop-color:#8BD4FF"/>
		<stop  offset="0.4152" style="stop-color:#815CFF"/>
		<stop  offset="1" style="stop-color:#001DA2"/>
	</linearGradient>
	<path class="st0" d="M77.5,0h191.1c42.8,0,77.5,34.7,77.5,77.5v191.1c0,42.8-34.7,77.5-77.5,77.5H77.5C34.7,346.1,0,311.4,0,268.6
		V77.5C0.1,34.7,34.8,0,77.5,0z"/>
	<path class="st1" d="M229.5,44.4H116.7c-39.9,0-72.2,32.3-72.2,72.2l0,0v112.8c0,39.9,32.3,72.2,72.2,72.2l0,0h112.8
		c39.9,0,72.2-32.3,72.2-72.2l0,0V116.6C301.7,76.7,269.3,44.4,229.5,44.4z M278.9,227.3c0,28.2-22.9,51.1-51.1,51.1H118.3
		c-28.2,0-51.1-22.9-51.1-51.1V118.7c0-28.2,22.9-51.1,51.1-51.1h109.5c28.2,0,51.1,22.9,51.1,51.1V227.3z"/>
	<path class="st1" d="M173.1,107.1c-36.4,0-65.9,29.5-65.9,65.9s29.5,65.9,65.9,65.9S239,209.4,239,173l0,0
		C239,136.6,209.5,107.1,173.1,107.1z M173.1,216.1c-23.8,0-43.1-19.3-43.1-43.2c0-23.8,19.3-43.1,43.2-43.1
		c23.8,0,43.1,19.3,43.1,43.2l0,0C216.3,196.8,196.9,216.1,173.1,216.1C173.1,216.2,173.1,216.2,173.1,216.1L173.1,216.1z"/>
	<circle class="st1" cx="239" cy="102.5" r="15.7"/>
</g>
</svg>
