<?xml version="1.0" encoding="utf-8"?>
<!-- Generator: Adobe Illustrator 23.0.1, SVG Export Plug-In . SVG Version: 6.00 Build 0)  -->
<svg version="1.1" id="b9950e65-c983-427f-969f-411e60d4718f"
	 xmlns="http://www.w3.org/2000/svg" xmlns:xlink="http://www.w3.org/1999/xlink" x="0px" y="0px" viewBox="0 0 733.5 729"
	 style="enable-background:new 0 0 733.5 729;" xml:space="preserve">
<style type="text/css">
	.st0{fill:url(#SVGID_1_);}
	.st1{fill:#ECEFF1;}
	.st2{fill:url(#SVGID_2_);}
	.st3{fill:#2D2B2F;}
	.st4{opacity:0.2;enable-background:new;}
	.st5{fill:url(#SVGID_3_);}
	.st6{fill:#9B78DE;}
	.st7{fill:url(#SVGID_4_);}
	.st8{fill:#FAF8E4;}
	.st9{opacity:0.6;}
	.st10{fill:url(#SVGID_5_);}
	.st11{fill:url(#SVGID_6_);}
	.st12{fill:#FFFFFF;}
	.st13{fill:url(#SVGID_7_);}
	.st14{opacity:0.2;fill:#FFFFFF;enable-background:new;}
	.st15{fill:url(#SVGID_8_);}
	.st16{fill:url(#SVGID_9_);}
</style>
<title>mail box</title>
<linearGradient id="SVGID_1_" gradientUnits="userSpaceOnUse" x1="505.51" y1="790.9" x2="505.51" y2="462.9" gradientTransform="matrix(-1 0 0 1 855.51 -62)">
	<stop  offset="0" style="stop-color:#808080;stop-opacity:0.25"/>
	<stop  offset="0.54" style="stop-color:#808080;stop-opacity:0.12"/>
	<stop  offset="1" style="stop-color:#808080;stop-opacity:0.1"/>
</linearGradient>
<rect x="312.8" y="400.9" class="st0" width="74.4" height="328"/>
<rect x="317.7" y="400.9" class="st1" width="62.7" height="322.2"/>
<linearGradient id="SVGID_2_" gradientUnits="userSpaceOnUse" x1="360.2899" y1="423.81" x2="960.19" y2="423.81" gradientTransform="matrix(-1 0 0 1 1041.29 -145.31)">
	<stop  offset="0" style="stop-color:#808080;stop-opacity:0.25"/>
	<stop  offset="0.54" style="stop-color:#808080;stop-opacity:0.12"/>
	<stop  offset="1" style="stop-color:#808080;stop-opacity:0.1"/>
</linearGradient>
<path class="st2" d="M139.7,145.3h335.2c11.5,0.3,22.9,2.8,33.4,7.4c34.1,15.1,53.9,38.8,59.5,91.4v121.4l88.8-0.9
	c17.9,0,24.4,28.1,24.4,47.1H81.1V207.6C81.1,173.2,107.3,145.3,139.7,145.3z"/>
<path class="st3" d="M462.7,158.1H130.6c-22.5,0-40.7,18.2-40.7,40.7V401l0,0h372.8l0,0V158.1L462.7,158.1z"/>
<path class="st3" d="M470.5,158.1L470.5,158.1c-49.8,0-90.1,40.3-90.1,90.1v108.7c0,24.4,19.7,44.1,44.1,44.1l0,0h92
	c24.4,0,44.1-19.7,44.1-44.1V248.1C560.6,198.4,520.3,158.1,470.5,158.1z"/>
<path class="st4" d="M470.5,158.1L470.5,158.1c-49.8,0-90.1,40.3-90.1,90.1v108.7c0,24.4,19.7,44.1,44.1,44.1l0,0h92
	c24.4,0,44.1-19.7,44.1-44.1V248.1C560.6,198.4,520.3,158.1,470.5,158.1z"/>
<linearGradient id="SVGID_3_" gradientUnits="userSpaceOnUse" x1="587.71" y1="311.1" x2="587.71" y2="187.8" gradientTransform="matrix(-1 0 0 1 855.51 -62)">
	<stop  offset="0" style="stop-color:#808080;stop-opacity:0.25"/>
	<stop  offset="0.54" style="stop-color:#808080;stop-opacity:0.12"/>
	<stop  offset="1" style="stop-color:#808080;stop-opacity:0.1"/>
</linearGradient>
<polygon class="st5" points="230.6,125.8 277.1,125.8 305,125.8 305,181.1 305,249.1 271.2,249.1 271.2,181.1 230.6,181.1 "/>
<polygon class="st6" points="236.5,125.8 275.6,125.8 299.1,125.8 299.1,176.7 299.1,239.3 275.6,239.3 275.6,176.7 236.5,176.7 "/>
<linearGradient id="SVGID_4_" gradientUnits="userSpaceOnUse" x1="378.8221" y1="443.9601" x2="378.8221" y2="367.2731" gradientTransform="matrix(0.9927 -0.1208 0.1208 0.9927 77.5254 -106.8915)">
	<stop  offset="0" style="stop-color:#808080;stop-opacity:0.25"/>
	<stop  offset="0.54" style="stop-color:#808080;stop-opacity:0.12"/>
	<stop  offset="1" style="stop-color:#808080;stop-opacity:0.1"/>
</linearGradient>
<polygon class="st7" points="569.1,280.5 559.9,204.4 436,219.5 445.3,295.6 "/>
<rect x="442.8" y="213.5" transform="matrix(0.9927 -0.1208 0.1208 0.9927 -26.434 62.5935)" class="st8" width="120.5" height="71.6"/>
<g class="st9">
	
		<rect x="539.5" y="213.4" transform="matrix(0.9927 -0.1208 0.1208 0.9927 -22.4626 67.6994)" class="st3" width="15.3" height="11.4"/>
	
		<rect x="486.7" y="247.2" transform="matrix(0.9927 -0.1208 0.1208 0.9927 -26.3077 64.175)" class="st3" width="58.9" height="3.7"/>
	
		<rect x="487.8" y="257.3" transform="matrix(0.9927 -0.1208 0.1208 0.9927 -27.5061 63.4111)" class="st3" width="42.9" height="2.5"/>
</g>
<linearGradient id="SVGID_5_" gradientUnits="userSpaceOnUse" x1="326.6883" y1="454.5433" x2="326.6883" y2="377.8633" gradientTransform="matrix(0.9927 -0.1208 0.1208 0.9927 77.5256 -106.8983)">
	<stop  offset="0" style="stop-color:#808080;stop-opacity:0.25"/>
	<stop  offset="0.54" style="stop-color:#808080;stop-opacity:0.12"/>
	<stop  offset="1" style="stop-color:#808080;stop-opacity:0.1"/>
</linearGradient>
<polygon class="st10" points="518.7,297.3 509.4,221.2 385.5,236.2 394.8,312.4 "/>
<rect x="392.3" y="230.3" transform="matrix(0.9927 -0.1208 0.1208 0.9927 -28.8335 56.6168)" class="st8" width="120.5" height="71.6"/>
<g class="st9">
	
		<rect x="489" y="230.2" transform="matrix(0.9927 -0.1208 0.1208 0.9927 -24.8619 61.7227)" class="st3" width="15.3" height="11.4"/>
	
		<rect x="436.3" y="263.9" transform="matrix(0.9927 -0.1208 0.1208 0.9927 -28.693 58.2079)" class="st3" width="58.9" height="3.7"/>
	
		<rect x="437.4" y="274" transform="matrix(0.9927 -0.1208 0.1208 0.9927 -29.8917 57.4441)" class="st3" width="42.9" height="2.5"/>
</g>
<linearGradient id="SVGID_6_" gradientUnits="userSpaceOnUse" x1="410.0938" y1="501.8073" x2="410.0938" y2="397.8434" gradientTransform="matrix(0.9927 -0.1208 0.1208 0.9927 77.5334 -106.8893)">
	<stop  offset="0" style="stop-color:#808080;stop-opacity:0.25"/>
	<stop  offset="0.54" style="stop-color:#808080;stop-opacity:0.12"/>
	<stop  offset="1" style="stop-color:#808080;stop-opacity:0.1"/>
</linearGradient>
<polygon class="st11" points="629.2,331.5 616.6,228.3 448.8,248.8 461.3,351.9 "/>
<rect x="457.9" y="240.6" transform="matrix(0.9927 -0.1208 0.1208 0.9927 -30.9746 67.2995)" class="st12" width="163.4" height="97"/>
<g class="st9">
	
		<rect x="589" y="240.6" transform="matrix(0.9927 -0.1208 0.1208 0.9927 -25.6071 74.2261)" class="st3" width="20.8" height="15.4"/>
	
		<rect x="517.5" y="286.2" transform="matrix(0.9927 -0.1208 0.1208 0.9927 -30.7954 69.4468)" class="st3" width="79.8" height="5"/>
	
		<rect x="519" y="299.9" transform="matrix(0.9927 -0.1208 0.1208 0.9927 -32.4153 68.4172)" class="st3" width="58.2" height="3.3"/>
</g>
<linearGradient id="SVGID_7_" gradientUnits="userSpaceOnUse" x1="339.428" y1="516.0853" x2="339.428" y2="412.1213" gradientTransform="matrix(0.9927 -0.1208 0.1208 0.9927 77.532 -106.8962)">
	<stop  offset="0" style="stop-color:#808080;stop-opacity:0.25"/>
	<stop  offset="0.54" style="stop-color:#808080;stop-opacity:0.12"/>
	<stop  offset="1" style="stop-color:#808080;stop-opacity:0.1"/>
</linearGradient>
<polygon class="st13" points="560.8,354.2 548.2,251 380.3,271.5 392.9,374.6 "/>
<rect x="389.5" y="263.4" transform="matrix(0.9927 -0.1208 0.1208 0.9927 -34.2294 59.2049)" class="st12" width="163.4" height="97"/>
<g class="st9">
	
		<rect x="520.6" y="263.3" transform="matrix(0.9927 -0.1208 0.1208 0.9927 -28.8498 66.1294)" class="st3" width="20.8" height="15.4"/>
	<rect x="449.1" y="309" transform="matrix(0.9927 -0.1208 0.1208 0.9927 -34.0501 61.3522)" class="st3" width="79.8" height="5"/>
	
		<rect x="450.6" y="322.6" transform="matrix(0.9927 -0.1208 0.1208 0.9927 -35.6581 60.3205)" class="st3" width="58.2" height="3.3"/>
</g>
<path class="st4" d="M471.5,159L471.5,159c11.8,0,23.5,2.3,34.4,6.8c-4.2-0.6-8.5-0.9-12.8-0.9l0,0c-49.8,0-90.1,40.3-90.1,90.1v143
	h-21.5V249.1C381.4,199.4,421.7,159,471.5,159z"/>
<path class="st3" d="M638.9,369.6H380.4l0,0v31.3l0,0h289.9l0,0l0,0C670.3,383.6,656.2,369.6,638.9,369.6z"/>
<path class="st14" d="M638.9,369.6H380.4l0,0v31.3l0,0h289.9l0,0l0,0C670.3,383.6,656.2,369.6,638.9,369.6z"/>
<linearGradient id="SVGID_8_" gradientUnits="userSpaceOnUse" x1="795.9547" y1="412.676" x2="795.9547" y2="353.3159" gradientTransform="matrix(0.65 0.76 -0.76 0.65 -183.22 -804.38)">
	<stop  offset="0" style="stop-color:#808080;stop-opacity:0.25"/>
	<stop  offset="0.54" style="stop-color:#808080;stop-opacity:0.12"/>
	<stop  offset="1" style="stop-color:#808080;stop-opacity:0.1"/>
</linearGradient>
<polygon class="st15" points="76.1,70.6 79.1,72 78.8,71.4 79,71.5 78.7,71.2 38.6,0 18.2,17.5 0.6,33.7 5.7,36.2 0,46.2 "/>
<polygon class="st3" points="20.2,19.3 4.2,34.2 76.9,70.3 38.2,20.7 "/>
<polygon class="st4" points="20.2,19.3 4.2,34.2 76.9,70.3 38.2,20.7 "/>
<polygon class="st3" points="38.9,3.3 76.9,70.3 20.2,19.3 "/>
<polygon class="st3" points="3.7,45.7 76.8,69.8 15.7,24.2 "/>
<linearGradient id="SVGID_9_" gradientUnits="userSpaceOnUse" x1="458.1594" y1="670.6931" x2="458.1594" y2="583.765" gradientTransform="matrix(-0.8447 0.5352 0.5352 0.8447 719.3218 -702.1354)">
	<stop  offset="0" style="stop-color:#808080;stop-opacity:0.25"/>
	<stop  offset="0.54" style="stop-color:#808080;stop-opacity:0.12"/>
	<stop  offset="1" style="stop-color:#808080;stop-opacity:0.1"/>
</linearGradient>
<polygon class="st16" points="611.8,87 607.1,87.7 607.8,87 607.4,87 608,86.8 694.9,4.4 716,37.7 733.5,68 725.4,69.3 729,85.7 "/>
<polygon class="st3" points="712.3,39.4 728.4,67.2 610.9,86.3 686.5,33.6 "/>
<polygon class="st4" points="712.3,39.4 728.4,67.2 610.9,86.3 686.5,33.6 "/>
<polygon class="st3" points="693,9 610.9,86.3 712.3,39.4 "/>
<polygon class="st3" points="724,83.5 611.2,85.7 716.5,48.3 "/>
</svg>
