<?xml version="1.0" encoding="utf-8"?>
<!-- Generator: Adobe Illustrator 23.0.1, SVG Export Plug-In . SVG Version: 6.00 Build 0)  -->
<svg version="1.1" id="b9950e65-c983-427f-969f-411e60d4718f"
	 xmlns="http://www.w3.org/2000/svg" xmlns:xlink="http://www.w3.org/1999/xlink" x="0px" y="0px" viewBox="0 0 733.5 729"
	 style="enable-background:new 0 0 733.5 729;" xml:space="preserve">
<style type="text/css">
	.st0{fill:url(#SVGID_1_);}
	.st1{fill:#2D2B2F;}
	.st2{opacity:0.2;enable-background:new    ;}
	.st3{fill:#2D2B2F;stroke:#9B78DE;stroke-width:4;stroke-miterlimit:10;}
	.st4{fill:url(#SVGID_2_);}
	.st5{fill:#FFFFFF;}
	.st6{opacity:0.6;}
	.st7{fill:url(#SVGID_3_);}
	.st8{fill:url(#SVGID_4_);}
	.st9{fill:#9B78DE;}
	.st10{fill:url(#SVGID_5_);}
	.st11{opacity:0.2;fill:#FFFFFF;enable-background:new    ;}
	.st12{fill:url(#SVGID_6_);}
	.st13{fill:url(#SVGID_7_);}
</style>
<title>mail box</title>
<linearGradient id="SVGID_1_" gradientUnits="userSpaceOnUse" x1="1092.29" y1="748.61" x2="1692.1901" y2="748.61" gradientTransform="matrix(-1 0 0 1 1773.29 -331.31)">
	<stop  offset="0" style="stop-color:#808080;stop-opacity:0.25"/>
	<stop  offset="0.54" style="stop-color:#808080;stop-opacity:0.12"/>
	<stop  offset="1" style="stop-color:#808080;stop-opacity:0.1"/>
</linearGradient>
<path class="st0" d="M139.7,284.1h335.2c11.5,0.3,22.9,2.8,33.4,7.4c34.1,15.1,53.9,38.8,59.5,91.4v121.4l88.8-0.9
	c17.9,0,24.4,28.1,24.4,47.1H81.1V346.4C81.1,312,107.3,284.1,139.7,284.1z"/>
<path class="st1" d="M462.7,296.9H130.6c-22.5,0-40.7,18.2-40.7,40.7v202.2l0,0h372.8l0,0V296.9L462.7,296.9z"/>
<path class="st1" d="M470.5,296.9L470.5,296.9c-49.8,0-90.1,40.3-90.1,90.1v108.7c0,24.4,19.7,44.1,44.1,44.1l0,0h92
	c24.4,0,44.1-19.7,44.1-44.1V386.9C560.6,337.2,520.3,296.9,470.5,296.9z"/>
<path class="st2" d="M470.5,296.9L470.5,296.9c-49.8,0-90.1,40.3-90.1,90.1v108.7c0,24.4,19.7,44.1,44.1,44.1l0,0h92
	c24.4,0,44.1-19.7,44.1-44.1V386.9C560.6,337.2,520.3,296.9,470.5,296.9z"/>
<polygon class="st3" points="227.1,252.8 262.3,252.6 283.5,252.5 283.6,296.8 283.8,351.2 262.6,351.3 262.5,296.9 227.3,297.1 "/>
<linearGradient id="SVGID_2_" gradientUnits="userSpaceOnUse" x1="342.2765" y1="722.1635" x2="342.2765" y2="645.4764" gradientTransform="matrix(0.9927 -0.1208 0.1208 0.9927 80.1972 -248.6787)">
	<stop  offset="0" style="stop-color:#808080;stop-opacity:0.25"/>
	<stop  offset="0.54" style="stop-color:#808080;stop-opacity:0.12"/>
	<stop  offset="1" style="stop-color:#808080;stop-opacity:0.1"/>
</linearGradient>
<polygon class="st4" points="569.1,419.3 559.9,343.2 436,358.3 445.3,434.4 "/>
<rect x="442.8" y="352.3" transform="matrix(0.9927 -0.1208 0.1208 0.9927 -43.1987 63.6105)" class="st5" width="120.5" height="71.6"/>
<g class="st6">
	
		<rect x="539.5" y="352.2" transform="matrix(0.9927 -0.1208 0.1208 0.9927 -39.2276 68.7166)" class="st1" width="15.3" height="11.4"/>
	
		<rect x="486.7" y="386" transform="matrix(0.9927 -0.1208 0.1208 0.9927 -43.0725 65.1911)" class="st1" width="58.9" height="3.7"/>
	
		<rect x="487.8" y="396.1" transform="matrix(0.9927 -0.1208 0.1208 0.9927 -44.2707 64.4272)" class="st1" width="42.9" height="2.5"/>
</g>
<linearGradient id="SVGID_3_" gradientUnits="userSpaceOnUse" x1="290.1428" y1="732.7467" x2="290.1428" y2="656.0669" gradientTransform="matrix(0.9927 -0.1208 0.1208 0.9927 80.1974 -248.6855)">
	<stop  offset="0" style="stop-color:#808080;stop-opacity:0.25"/>
	<stop  offset="0.54" style="stop-color:#808080;stop-opacity:0.12"/>
	<stop  offset="1" style="stop-color:#808080;stop-opacity:0.1"/>
</linearGradient>
<polygon class="st7" points="518.7,436.1 509.4,360 385.5,375 394.8,451.2 "/>
<rect x="392.3" y="369.1" transform="matrix(0.9908 -0.1353 0.1353 0.9908 -50.6359 64.9741)" class="st5" width="120.5" height="71.6"/>
<g class="st6">
	
		<rect x="489" y="369" transform="matrix(0.9927 -0.1208 0.1208 0.9927 -41.6268 62.7392)" class="st1" width="15.3" height="11.4"/>
	
		<rect x="436.3" y="402.7" transform="matrix(0.9927 -0.1208 0.1208 0.9927 -45.459 59.2251)" class="st1" width="58.9" height="3.7"/>
	
		<rect x="437.4" y="412.8" transform="matrix(0.9927 -0.1208 0.1208 0.9927 -46.6571 58.4612)" class="st1" width="42.9" height="2.5"/>
</g>
<linearGradient id="SVGID_4_" gradientUnits="userSpaceOnUse" x1="373.5483" y1="780.0107" x2="373.5483" y2="676.0468" gradientTransform="matrix(0.9927 -0.1208 0.1208 0.9927 80.2052 -248.6765)">
	<stop  offset="0" style="stop-color:#808080;stop-opacity:0.25"/>
	<stop  offset="0.54" style="stop-color:#808080;stop-opacity:0.12"/>
	<stop  offset="1" style="stop-color:#808080;stop-opacity:0.1"/>
</linearGradient>
<polygon class="st8" points="629.2,470.3 616.6,367.1 448.8,387.6 461.3,490.7 "/>
<rect x="457.9" y="379.4" transform="matrix(0.9927 -0.1208 0.1208 0.9927 -47.7388 68.3172)" class="st9" width="163.4" height="97"/>
<g class="st6">
	
		<rect x="589" y="379.4" transform="matrix(0.9927 -0.1208 0.1208 0.9927 -42.3723 75.2422)" class="st1" width="20.8" height="15.4"/>
	<rect x="517.5" y="425" transform="matrix(0.9927 -0.1208 0.1208 0.9927 -47.5602 70.4645)" class="st1" width="79.8" height="5"/>
	
		<rect x="519" y="438.7" transform="matrix(0.9927 -0.1208 0.1208 0.9927 -49.1806 69.4352)" class="st1" width="58.2" height="3.3"/>
</g>
<linearGradient id="SVGID_5_" gradientUnits="userSpaceOnUse" x1="302.8825" y1="794.2886" x2="302.8825" y2="690.3247" gradientTransform="matrix(0.9927 -0.1208 0.1208 0.9927 80.2038 -248.6834)">
	<stop  offset="0" style="stop-color:#808080;stop-opacity:0.25"/>
	<stop  offset="0.54" style="stop-color:#808080;stop-opacity:0.12"/>
	<stop  offset="1" style="stop-color:#808080;stop-opacity:0.1"/>
</linearGradient>
<polygon class="st10" points="560.8,493 548.2,389.8 380.3,410.3 392.9,513.4 "/>
<rect x="389.5" y="402.2" transform="matrix(0.9927 -0.1208 0.1208 0.9927 -50.994 60.2214)" class="st9" width="163.4" height="97"/>
<g class="st6">
	
		<rect x="520.6" y="402.1" transform="matrix(0.9927 -0.1208 0.1208 0.9927 -45.6153 67.1458)" class="st1" width="20.8" height="15.4"/>
	
		<rect x="449.1" y="447.8" transform="matrix(0.9927 -0.1208 0.1208 0.9927 -50.8153 62.3687)" class="st1" width="79.8" height="5"/>
	
		<rect x="450.6" y="461.4" transform="matrix(0.9927 -0.1208 0.1208 0.9927 -52.4236 61.3387)" class="st1" width="58.2" height="3.3"/>
</g>
<path class="st2" d="M471.5,297.8L471.5,297.8c11.8,0,23.5,2.3,34.4,6.8c-4.2-0.6-8.5-0.9-12.8-0.9l0,0c-49.8,0-90.1,40.3-90.1,90.1
	v143h-21.5V387.9C381.4,338.2,421.7,297.8,471.5,297.8z"/>
<path class="st1" d="M638.9,508.4H380.4l0,0v31.3l0,0h289.9l0,0l0,0C670.3,522.4,656.2,508.4,638.9,508.4z"/>
<path class="st11" d="M638.9,508.4H380.4l0,0v31.3l0,0h289.9l0,0l0,0C670.3,522.4,656.2,508.4,638.9,508.4z"/>
<linearGradient id="SVGID_6_" gradientUnits="userSpaceOnUse" x1="1170.9019" y1="901.907" x2="1170.9019" y2="842.547" gradientTransform="matrix(0.65 0.76 -0.76 0.65 -55.12 -1268.54)">
	<stop  offset="0" style="stop-color:#808080;stop-opacity:0.25"/>
	<stop  offset="0.54" style="stop-color:#808080;stop-opacity:0.12"/>
	<stop  offset="1" style="stop-color:#808080;stop-opacity:0.1"/>
</linearGradient>
<polygon class="st12" points="76.1,209.4 79.1,210.8 78.8,210.2 79,210.3 78.7,210 38.6,138.8 18.2,156.3 0.6,172.5 5.7,175 0,185 
	"/>
<polygon class="st1" points="20.2,158.1 4.2,173 76.9,209.1 38.2,159.5 "/>
<polygon class="st2" points="20.2,158.1 4.2,173 76.9,209.1 38.2,159.5 "/>
<polygon class="st9" points="38.9,142.1 76.9,209.1 20.2,158.1 "/>
<polygon class="st9" points="3.7,184.5 76.8,208.6 15.7,163 "/>
<linearGradient id="SVGID_7_" gradientUnits="userSpaceOnUse" x1="1307.1731" y1="749.1719" x2="1307.1731" y2="662.2437" gradientTransform="matrix(-0.8447 0.5352 0.5352 0.8447 1394.4818 -1084.0186)">
	<stop  offset="0" style="stop-color:#808080;stop-opacity:0.25"/>
	<stop  offset="0.54" style="stop-color:#808080;stop-opacity:0.12"/>
	<stop  offset="1" style="stop-color:#808080;stop-opacity:0.1"/>
</linearGradient>
<polygon class="st13" points="611.8,225.8 607.1,226.5 607.8,225.8 607.4,225.8 608,225.6 694.9,143.2 716,176.5 733.5,206.8 
	725.4,208.1 729,224.5 "/>
<polygon class="st1" points="712.3,178.2 728.4,206 610.9,225.1 686.5,172.4 "/>
<polygon class="st2" points="712.3,178.2 728.4,206 610.9,225.1 686.5,172.4 "/>
<polygon class="st9" points="693,147.8 610.9,225.1 712.3,178.2 "/>
<polygon class="st9" points="724,222.3 611.2,224.5 716.5,187.1 "/>
</svg>
