<?xml version="1.0" encoding="utf-8"?>
<!-- Generator: Adobe Illustrator 24.0.2, SVG Export Plug-In . SVG Version: 6.00 Build 0)  -->
<svg version="1.1" id="Layer_1" xmlns="http://www.w3.org/2000/svg" xmlns:xlink="http://www.w3.org/1999/xlink" x="0px" y="0px"
	 viewBox="0 0 294.1 241.9" style="enable-background:new 0 0 294.1 241.9;" xml:space="preserve">
<style type="text/css">
	.st0{fill:#61DEFF;}
</style>
<title>Asset 1</title>
<g id="Layer_2_1_">
	<g id="Layer_2-2">
		<path class="st0" d="M19,11c0,0,46.4,62,125.8,63.3c0,0-9.3-43,27.4-65.8c0,0,43-24.5,75.1,9.7c0,0,3.8,5.5,39.2-13.9
			c-3.6,13.9-12.8,25.8-25.3,32.9c0,0,10.1,3,32.9-8.4c0,0-7.6,16-29.1,30.4c0,0,7.6,79.3-56.6,138.8c0,0-83.1,86.5-208.5,16.9
			c0,0,51.5,5.9,88.2-26.2c0,0-38.8-0.4-56.1-41.4c0,0,7.2,4.2,24.9-2.1c0,0-42.2-7.2-46.4-59.5c0,0,19.8,8.9,25.3,5.9
			C35.9,91.6-5.9,52.4,19,11z"/>
	</g>
</g>
</svg>
